<svg version="1.1" xmlns="http://www.w3.org/2000/svg" style="display: block;" viewBox="0 0 2048 2048" width="2000" height="2000" preserveAspectRatio="none">
<path transform="translate(0,0)" fill="rgb(171,140,91)" d="M 920.177 824.41 C 942.597 820.206 991.457 833.694 1013.49 840.146 C 1037.83 848.608 1041.26 862.228 1066.93 847.767 C 1090.68 834.385 1126.69 829.884 1153 824.906 C 1155.46 824.468 1158.32 824.219 1160.83 823.93 C 1164.9 824.137 1168.94 824.385 1173.02 824.409 C 1174.88 828.5 1174.85 828.368 1175.38 832.825 C 1173.32 838.187 1162.76 837.447 1157.06 837.931 L 1158.34 838.354 C 1155.72 839.268 1151.86 840.873 1149.2 840.936 L 1148.36 841.931 C 1128.6 842.566 1128.76 845.071 1111.52 849.358 C 1135.56 863.894 1157.67 901.109 1169.07 926.191 C 1171.15 930.785 1175.94 955.305 1176.97 956.582 C 1175.02 962.853 1174.21 1098.49 1175.58 1108.91 C 1178.23 1111.57 1176.69 1110.92 1180.26 1111.12 C 1185.97 1108.35 1184.04 1110.03 1187.6 1104.84 C 1197.62 1104.66 1206.54 1104.5 1216.59 1105.02 L 1216.94 1120.36 C 1166.98 1121.96 1108.04 1120.53 1057.81 1120.27 L 881.164 1120.69 C 881.074 1115.59 880.651 1108.91 882.774 1104.34 C 890.079 1105.22 910.473 1104.88 918.591 1104.9 L 919.991 1105.5 L 921.453 1104.5 C 923.992 1096.64 923.161 969.246 920.328 963.016 C 921.633 958.262 922.625 951.062 923.473 946.03 L 923.626 944.186 C 924.996 940.293 926.346 934.952 927.51 930.88 L 928.041 925.392 L 931.916 919.967 C 932.342 919.155 933.308 916.07 933.663 915.023 L 935.644 912.327 C 937.603 909.473 937.666 908.568 938.536 905.3 C 943.236 901.076 946.535 891.427 951.485 885.22 C 961.873 872.19 973.335 860.655 985.066 848.863 C 977.37 847.269 969.961 845.02 962.158 843.549 C 953.162 841.852 926.283 842.469 919.222 837.416 C 918.264 832.901 919.38 829.035 920.177 824.41 z M 977.466 1103.9 C 987.471 1105.06 996.63 1104.79 1006.66 1104.71 C 1017.53 1104.56 1028.87 1104.78 1039.79 1104.77 C 1040.53 1088.23 1040.09 1067.69 1040.21 1050.86 C 1039.62 1046.9 1039.03 1041.86 1038.23 1038.03 C 1016.16 1015.91 1000.85 1031.47 989.324 1022.66 C 986.607 1018.04 988.082 1015.27 989.826 1010.6 C 992.644 1010.04 997.572 1011.04 1001.96 1010.73 C 1036.02 1008.32 1075.12 1011.78 1108.68 1009.63 C 1109 1015.44 1109.21 1019.66 1108.98 1025.49 C 1086.16 1026.88 1076.74 1019.89 1059.56 1038.07 C 1056.38 1053.38 1057.26 1087.75 1058.32 1103.87 C 1067.48 1105.15 1109.95 1105.16 1120 1104.35 C 1120.64 1072.68 1120.3 1041.25 1120.24 1009.58 C 1120.23 1002.52 1119.93 995.295 1120.07 988.219 C 1125.04 936.264 1090.74 900.202 1049.56 874.602 C 1018.9 891.491 990.285 918.86 980.257 953.27 C 974.478 973.1 975.931 1078.94 977.466 1103.9 z M 1005.78 853.628 C 906.271 931.343 942.13 996.455 934.035 1103.64 C 940.968 1104.51 954.713 1106.33 960.89 1103.05 L 961.622 1101.74 C 960.394 1072.9 960.769 1042.78 960.59 1013.8 C 960.52 1002.54 960.158 979.299 961.104 968.65 C 961.729 962.171 962.967 955.765 964.8 949.519 C 973.799 918.443 998.891 887.445 1027.02 871.317 C 1027.23 871.198 1030.81 865.48 1031.37 864.715 C 1024.03 859.925 1010.8 857.929 1005.78 853.628 z M 1091.79 853.15 C 1083.77 859.267 1073.19 860.042 1066.47 865.178 C 1068.07 868.606 1086.2 881.437 1090.4 885.058 C 1098.43 891.983 1103.73 899.088 1110.39 906.927 C 1141.83 943.94 1136.63 979.584 1136.46 1025.5 L 1136.73 1103.51 C 1147.47 1105.36 1152.53 1105.04 1163.38 1103.62 C 1162.28 1082.47 1163.13 1061.26 1162.89 1040.51 C 1162.34 991.888 1169.17 942.761 1138.03 901.014 C 1130.3 890.65 1123.59 880.085 1113.47 871.558 C 1109.22 867.58 1093.76 855.86 1091.79 853.15 z"/>
<path transform="translate(0,0)" fill="rgb(189,154,101)" d="M 1153 824.906 C 1155.46 824.468 1158.32 824.219 1160.83 823.93 C 1164.9 824.137 1168.94 824.385 1173.02 824.409 C 1171.53 827.083 1171.29 828.029 1168.9 829.924 C 1162.66 831.574 1158.75 828.155 1153 824.906 z"/>
<path transform="translate(0,0)" fill="rgb(189,154,101)" d="M 1040.21 1050.86 L 1042.54 1051.38 C 1048.03 1063.2 1042.71 1096.3 1043.05 1108.56 C 1032.11 1108.16 1011.08 1113.8 1006.66 1104.71 C 1017.53 1104.56 1028.87 1104.78 1039.79 1104.77 C 1040.53 1088.23 1040.09 1067.69 1040.21 1050.86 z"/>
<path transform="translate(0,0)" fill="rgb(189,154,101)" fill-opacity="0.988235" d="M 1176.97 956.582 C 1180.67 963.713 1179.21 986.346 1179.22 996.003 L 1179.54 1061.88 C 1179.51 1068.31 1177.88 1101.25 1181.5 1103.98 L 1187.6 1104.84 C 1184.04 1110.03 1185.97 1108.35 1180.26 1111.12 C 1176.69 1110.92 1178.23 1111.57 1175.58 1108.91 C 1174.21 1098.49 1175.02 962.853 1176.97 956.582 z"/>
<path transform="translate(0,0)" fill="rgb(189,154,101)" fill-opacity="0.988235" d="M 920.328 963.016 C 923.161 969.246 923.992 1096.64 921.453 1104.5 L 919.991 1105.5 L 918.591 1104.9 C 917.033 1063.48 917.681 1009.32 918.553 967.476 L 920.328 963.016 z"/>
<path transform="translate(0,0)" fill="rgb(181,147,109)" fill-opacity="0.988235" d="M 1160.83 823.93 C 1167.16 822.727 1172.1 823.026 1178.52 823.118 L 1179.49 837.391 C 1168.27 840.863 1160.33 842.627 1148.36 841.931 L 1149.2 840.936 C 1151.86 840.873 1155.72 839.268 1158.34 838.354 L 1157.06 837.931 C 1162.76 837.447 1173.32 838.187 1175.38 832.825 C 1174.85 828.368 1174.88 828.5 1173.02 824.409 C 1168.94 824.385 1164.9 824.137 1160.83 823.93 z"/>
</svg>